<svg xmlns="http://www.w3.org/2000/svg" viewBox="0 0 64 64" role="img" aria-label="FreshKart leaf icon">
  <defs>
    <linearGradient id="leafGradient" x1="18%" x2="82%" y1="12%" y2="88%">
      <stop offset="0%" stop-color="#34d399" />
      <stop offset="100%" stop-color="#15803d" />
    </linearGradient>
    <linearGradient id="veinGradient" x1="0%" x2="100%" y1="0%" y2="100%">
      <stop offset="0%" stop-color="#dcfce7" stop-opacity="0.95" />
      <stop offset="100%" stop-color="#bbf7d0" stop-opacity="0.55" />
    </linearGradient>
  </defs>
  <rect width="64" height="64" rx="18" fill="#f0fdf4" />
  <path
    d="M49.9 15.1c-12.7.6-22.4 4.6-28.9 11.8-6.1 6.7-8.5 15.1-7 24.8.1.9.8 1.5 1.7 1.5 9.5.5 17.4-2.1 23.5-7.8 7.7-7.2 11.4-17.6 11.1-28.8-.1-.9-.7-1.5-1.6-1.5h-1.8Z"
    fill="url(#leafGradient)"
  />
  <path
    d="M21 41.7c7.7-7.4 15.9-13 25.6-17.1"
    fill="none"
    stroke="#166534"
    stroke-linecap="round"
    stroke-width="3"
  />
  <path
    d="M27.1 36.8c4 1 7.4 2.7 10.1 5.2M31.6 29.8c3.8.5 7.1 1.9 10 4.2"
    fill="none"
    stroke="url(#veinGradient)"
    stroke-linecap="round"
    stroke-width="2.4"
  />
</svg>
